<svg width="40" height="40" viewBox="0 0 40 40" fill="none" xmlns="http://www.w3.org/2000/svg">
<rect width="40" height="40" rx="11.25" fill="black"/>
<path d="M20 11C15.0373 11 11 15.0373 11 20C11 24.9628 15.0373 29 20 29C24.9628 29 29 24.9628 29 20H26.975C26.975 23.846 23.846 26.975 20 26.975C16.154 26.975 13.025 23.846 13.025 20C13.025 16.154 16.154 13.025 20 13.025V11ZM25.55 12.9372L19.9213 19.9655L17.291 17.81L15.7895 19.637L19.3453 22.553C19.466 22.6526 19.6055 22.7272 19.7554 22.7724C19.9053 22.8176 20.0628 22.8325 20.2185 22.8163C20.3742 22.8 20.5252 22.7529 20.6625 22.6777C20.7999 22.6025 20.9209 22.5007 21.0185 22.3783L27.3965 14.4155L25.55 12.9372Z" fill="white"/>
</svg>
