<svg width="32" height="32" viewBox="0 0 32 32" fill="none" xmlns="http://www.w3.org/2000/svg">
<rect width="32" height="32" rx="9" fill="black"/>
<path d="M9.77778 12.1111H12.1111C12.3174 12.1111 12.5152 12.0292 12.6611 11.8833C12.8069 11.7374 12.8889 11.5396 12.8889 11.3333V10.5556C12.8889 10.143 13.0528 9.74733 13.3445 9.45561C13.6362 9.16389 14.0319 9 14.4444 9C14.857 9 15.2527 9.16389 15.5444 9.45561C15.8361 9.74733 16 10.143 16 10.5556V11.3333C16 11.5396 16.0819 11.7374 16.2278 11.8833C16.3737 12.0292 16.5715 12.1111 16.7778 12.1111H19.1111C19.3174 12.1111 19.5152 12.1931 19.6611 12.3389C19.8069 12.4848 19.8889 12.6826 19.8889 12.8889V15.2222C19.8889 15.4285 19.9708 15.6263 20.1167 15.7722C20.2626 15.9181 20.4604 16 20.6667 16H21.4444C21.857 16 22.2527 16.1639 22.5444 16.4556C22.8361 16.7473 23 17.143 23 17.5556C23 17.9681 22.8361 18.3638 22.5444 18.6555C22.2527 18.9472 21.857 19.1111 21.4444 19.1111H20.6667C20.4604 19.1111 20.2626 19.1931 20.1167 19.3389C19.9708 19.4848 19.8889 19.6826 19.8889 19.8889V22.2222C19.8889 22.4285 19.8069 22.6263 19.6611 22.7722C19.5152 22.9181 19.3174 23 19.1111 23H16.7778C16.5715 23 16.3737 22.9181 16.2278 22.7722C16.0819 22.6263 16 22.4285 16 22.2222V21.4444C16 21.0319 15.8361 20.6362 15.5444 20.3445C15.2527 20.0528 14.857 19.8889 14.4444 19.8889C14.0319 19.8889 13.6362 20.0528 13.3445 20.3445C13.0528 20.6362 12.8889 21.0319 12.8889 21.4444V22.2222C12.8889 22.4285 12.8069 22.6263 12.6611 22.7722C12.5152 22.9181 12.3174 23 12.1111 23H9.77778C9.5715 23 9.37367 22.9181 9.22781 22.7722C9.08194 22.6263 9 22.4285 9 22.2222V19.8889C9 19.6826 9.08194 19.4848 9.22781 19.3389C9.37367 19.1931 9.5715 19.1111 9.77778 19.1111H10.5556C10.9681 19.1111 11.3638 18.9472 11.6555 18.6555C11.9472 18.3638 12.1111 17.9681 12.1111 17.5556C12.1111 17.143 11.9472 16.7473 11.6555 16.4556C11.3638 16.1639 10.9681 16 10.5556 16H9.77778C9.5715 16 9.37367 15.9181 9.22781 15.7722C9.08194 15.6263 9 15.4285 9 15.2222V12.8889C9 12.6826 9.08194 12.4848 9.22781 12.3389C9.37367 12.1931 9.5715 12.1111 9.77778 12.1111Z" stroke="white" stroke-width="1.5" stroke-linecap="round" stroke-linejoin="round"/>
</svg>
