<svg width="32" height="32" viewBox="0 0 32 32" fill="none" xmlns="http://www.w3.org/2000/svg">
<rect width="32" height="32" rx="9" fill="black"/>
<path d="M22.5661 20.9133L19.2499 18.0932C18.9069 17.7843 18.5403 17.6434 18.2445 17.6566C19.1247 16.6245 19.5712 15.2919 19.4906 13.938C19.41 12.584 18.8085 11.3138 17.8122 10.3935C16.8158 9.47315 15.502 8.97415 14.1459 9.00103C12.7898 9.02791 11.4968 9.57859 10.5377 10.5377C9.57859 11.4968 9.02791 12.7898 9.00103 14.1459C8.97415 15.502 9.47315 16.8158 10.3935 17.8122C11.3138 18.8085 12.584 19.41 13.938 19.4906C15.2919 19.5712 16.6245 19.1247 17.6566 18.2445C17.6426 18.5403 17.7843 18.9069 18.0932 19.2499L20.9133 22.5661C21.3963 23.1025 22.1846 23.148 22.6659 22.6667C23.1471 22.1855 23.1016 21.3963 22.5652 20.9141L22.5661 20.9133ZM14.2502 17.7493C13.322 17.7493 12.4317 17.3806 11.7754 16.7242C11.119 16.0678 10.7503 15.1776 10.7503 14.2493C10.7503 13.3211 11.119 12.4309 11.7754 11.7745C12.4317 11.1181 13.322 10.7494 14.2502 10.7494C15.1785 10.7494 16.0687 11.1181 16.7251 11.7745C17.3814 12.4309 17.7502 13.3211 17.7502 14.2493C17.7502 15.1776 17.3814 16.0678 16.7251 16.7242C16.0687 17.3806 15.1785 17.7493 14.2502 17.7493Z" fill="white"/>
</svg>
