<svg width="44" height="44" viewBox="0 0 44 44" fill="none" xmlns="http://www.w3.org/2000/svg">
<rect width="44" height="44" rx="12" fill="black"/>
<path d="M22.75 21.075C22.625 21.075 22.625 20.9562 22.5 20.9562V17.275C24 17.3937 25.25 17.9875 25.25 17.9875L26.375 15.85C26.25 15.85 24.5 14.9 22.5 14.9V13H21.25V14.9C20.25 15.1375 19.5 15.4938 18.75 15.9688C18 16.6813 17.5 17.6313 17.5 18.7C17.5 19.5312 17.75 21.4312 21.25 22.975V27.6062C20.125 27.3688 18.75 26.775 18.25 26.5375L17 28.5563C17.25 28.675 19.25 29.7437 21.25 29.9813V32H22.5V29.9813C25.375 29.625 27 27.4875 27 25.4688C27 23.6875 25.75 22.2625 22.75 21.075ZM21.25 20.3625C20.25 19.7687 20 19.175 20 18.8187C20 18.3438 20.125 17.9875 20.5 17.75L21.25 17.3938V20.3625ZM22.5 27.6062V23.5687C23.875 24.1625 24.5 24.875 24.5 25.4688C24.5 26.1812 24.125 27.3688 22.5 27.6062Z" fill="white"/>
</svg>
