<svg width="44" height="44" viewBox="0 0 44 44" fill="none" xmlns="http://www.w3.org/2000/svg">
<rect width="44" height="44" rx="12" fill="black"/>
<path d="M22 14.9C22.9283 14.9 23.8185 15.2503 24.4749 15.8739C25.1313 16.4974 25.5 17.3432 25.5 18.225C25.5 19.1068 25.1313 19.9526 24.4749 20.5761C23.8185 21.1997 22.9283 21.55 22 21.55C21.0717 21.55 20.1815 21.1997 19.5251 20.5761C18.8687 19.9526 18.5 19.1068 18.5 18.225C18.5 17.3432 18.8687 16.4974 19.5251 15.8739C20.1815 15.2503 21.0717 14.9 22 14.9ZM27.5 18.225C27.5 16.8392 26.9205 15.5102 25.8891 14.5304C24.8576 13.5505 23.4587 13 22 13C20.5413 13 19.1424 13.5505 18.1109 14.5304C17.0795 15.5102 16.5 16.8392 16.5 18.225C16.5 19.6108 17.0795 20.9398 18.1109 21.9196C19.1424 22.8995 20.5413 23.45 22 23.45C23.4587 23.45 24.8576 22.8995 25.8891 21.9196C26.9205 20.9398 27.5 19.6108 27.5 18.225ZM31 29.15C31 27.8902 30.4732 26.682 29.5355 25.7912C28.5979 24.9004 27.3261 24.4 26 24.4H18C16.6739 24.4 15.4021 24.9004 14.4645 25.7912C13.5268 26.682 13 27.8902 13 29.15V32H31V29.15ZM26 26.3C26.7956 26.3 27.5587 26.6003 28.1213 27.1347C28.6839 27.6692 29 28.3941 29 29.15V30.1H15V29.15C15 28.3941 15.3161 27.6692 15.8787 27.1347C16.4413 26.6003 17.2044 26.3 18 26.3H26Z" fill="white"/>
</svg>
